<svg width="54" height="54" viewBox="0 0 54 54" fill="none" xmlns="http://www.w3.org/2000/svg">
<circle cx="27" cy="27" r="27" fill="#228002"/>
<path d="M15.75 39.5C15.0625 39.5 14.4738 39.255 13.9838 38.765C13.4938 38.275 13.2492 37.6867 13.25 37V22C13.25 21.3125 13.495 20.7237 13.985 20.2337C14.475 19.7438 15.0633 19.4992 15.75 19.5H19.6875L22 17H29.5V22H33.25V25.75H38.25V37C38.25 37.6875 38.005 38.2763 37.515 38.7663C37.025 39.2563 36.4367 39.5008 35.75 39.5H15.75ZM25.75 35.125C27.3125 35.125 28.6408 34.5779 29.735 33.4837C30.8292 32.3896 31.3758 31.0617 31.375 29.5C31.375 27.9375 30.8279 26.6092 29.7338 25.515C28.6396 24.4208 27.3117 23.8742 25.75 23.875C24.1875 23.875 22.8592 24.4221 21.765 25.5162C20.6708 26.6104 20.1242 27.9383 20.125 29.5C20.125 31.0625 20.6721 32.3908 21.7663 33.485C22.8604 34.5792 24.1883 35.1258 25.75 35.125ZM25.75 32.625C24.875 32.625 24.1354 32.3229 23.5313 31.7188C22.9271 31.1146 22.625 30.375 22.625 29.5C22.625 28.625 22.9271 27.8854 23.5313 27.2812C24.1354 26.6771 24.875 26.375 25.75 26.375C26.625 26.375 27.3646 26.6771 27.9688 27.2812C28.5729 27.8854 28.875 28.625 28.875 29.5C28.875 30.375 28.5729 31.1146 27.9688 31.7188C27.3646 32.3229 26.625 32.625 25.75 32.625ZM35.75 22V19.5H33.25V17H35.75V14.5H38.25V17H40.75V19.5H38.25V22H35.75Z" fill="white"/>
</svg>
